<?xml version="1.0" encoding="UTF-8"?>
<svg width="32px" height="32px" viewBox="0 0 32 32" version="1.1" xmlns="http://www.w3.org/2000/svg" xmlns:xlink="http://www.w3.org/1999/xlink">
    <title>Favicon</title>
    <defs></defs>
    <g stroke="none" stroke-width="1" fill="none" fill-rule="evenodd">
        <g fill="#000A30">
            <g id="Group-3">
                <path d="M0,3.08577126 C0,1.42744585 1.33425951,0.0831074977 2.99610022,0.0831074977 L29.0038998,0.0831074977 C30.6586002,0.0831074977 32,1.43415047 32,3.08577126 L32,28.9973362 C32,30.6556616 30.6657405,32 29.0038998,32 L2.99610022,32 C1.34139976,32 0,30.648957 0,28.9973362 L0,3.08577126 Z M4.81222399,5.66863425 C5.30444843,5.66863425 5.95706993,5.66863425 6.61437044,5.66863425 C8.66499257,5.66863425 11.1105807,5.61341888 11.1256032,8.59213461 C11.1430399,12.0495583 11.176302,21.6646074 11.176302,23.8629178 C11.176302,26.0612282 10.3927498,26.2666197 8.73188459,26.2666197 C8.7317225,26.2666197 5.04114386,26.2000671 5.04114386,26.2000671 C5.04114386,26.2000671 5.04866544,25.6299145 5.05446301,25.6287274 C7.34234589,25.5106515 7.30875994,24.1008861 7.31179974,22.8264838 C7.31483954,21.5520815 7.33362954,9.75403637 7.3368282,8.54593102 C7.34002686,7.33782568 6.44152275,6.4764975 4.80100905,6.28026952 C4.7990306,6.28003287 4.79869297,5.66863425 4.81222399,5.66863425 Z M11.6491566,5.68486723 C11.6491566,5.68486723 23.2016343,5.68738472 24.0158052,5.68486723 C24.8299761,5.68234975 25.8283224,6.38819989 25.8283224,7.44632403 C25.8283224,8.50444818 25.8733773,14.6767035 25.8283224,15.5570005 C25.7832674,16.4372975 25.4003,17.5000226 23.8824456,17.5000226 C22.3645912,17.5000226 17.7567012,17.5010146 17.7567012,17.5010146 C17.7567012,17.5010146 23.0846972,23.0633127 23.960604,23.9243787 C24.8365107,24.7854447 26.0184303,25.6056725 27.2593341,25.6056725 C27.2593341,25.6056725 27.2593341,26.2013987 27.2593341,26.2013987 C27.2593341,26.2013987 22.6595902,26.2091804 21.9054261,26.2354177 C21.151262,26.261655 20.3643733,25.7092741 19.3883825,24.5442004 C18.4123918,23.3791266 12.8295285,17.2636396 12.8295285,17.2636396 L12.8295285,15.8703879 C12.8295285,15.8703879 13.6980709,16.2245923 14.2995866,16.2300286 C14.9011023,16.2354648 20.5502022,16.216939 21.0231885,16.2354648 C21.4961748,16.2539906 21.918438,16.1715948 21.9110993,15.4677102 C21.9037606,14.7638255 21.8920128,8.75535183 21.9054261,7.95246046 C21.9188394,7.14956909 21.4803441,6.5875151 20.4343633,6.5875151 C19.3883825,6.5875151 13.104997,6.59464675 12.4480853,6.59696756 C11.7911736,6.59928837 11.6491566,5.68486723 11.6491566,5.68486723 Z"></path>
            </g>
        </g>
    </g>
</svg>